<mxfile host="app.diagrams.net" agent="Mozilla/5.0 (Macintosh; Intel Mac OS X 10_15_7) AppleWebKit/605.1.15 (KHTML, like Gecko) Version/18.3 Safari/605.1.15" version="26.1.0">
  <diagram name="Page-1" id="p6ux04nATETKhKQaoALp">
    <mxGraphModel dx="788" dy="664" grid="1" gridSize="10" guides="1" tooltips="1" connect="1" arrows="1" fold="1" page="1" pageScale="1" pageWidth="827" pageHeight="1169" math="0" shadow="0">
      <root>
        <mxCell id="0" />
        <mxCell id="1" parent="0" />
        <mxCell id="GIx_utv8iZvYDrLc7T0r-1" value="" style="sketch=0;points=[[0,0,0],[0.25,0,0],[0.5,0,0],[0.75,0,0],[1,0,0],[0,1,0],[0.25,1,0],[0.5,1,0],[0.75,1,0],[1,1,0],[0,0.25,0],[0,0.5,0],[0,0.75,0],[1,0.25,0],[1,0.5,0],[1,0.75,0]];outlineConnect=0;fontColor=#232F3E;fillColor=#ED7100;strokeColor=#ffffff;dashed=0;verticalLabelPosition=bottom;verticalAlign=top;align=center;html=1;fontSize=12;fontStyle=0;aspect=fixed;shape=mxgraph.aws4.resourceIcon;resIcon=mxgraph.aws4.ec2;" vertex="1" parent="1">
          <mxGeometry x="370" y="300" width="78" height="78" as="geometry" />
        </mxCell>
        <mxCell id="GIx_utv8iZvYDrLc7T0r-2" value="EC2 instance(front-end and backend)" style="text;html=1;align=center;verticalAlign=middle;resizable=0;points=[];autosize=1;strokeColor=none;fillColor=none;" vertex="1" parent="1">
          <mxGeometry x="310" y="378" width="220" height="30" as="geometry" />
        </mxCell>
        <mxCell id="GIx_utv8iZvYDrLc7T0r-4" value="" style="sketch=0;outlineConnect=0;fontColor=#232F3E;gradientColor=none;fillColor=#C925D1;strokeColor=none;dashed=0;verticalLabelPosition=bottom;verticalAlign=top;align=center;html=1;fontSize=12;fontStyle=0;aspect=fixed;pointerEvents=1;shape=mxgraph.aws4.rds_instance;" vertex="1" parent="1">
          <mxGeometry x="392" y="540" width="78" height="78" as="geometry" />
        </mxCell>
        <mxCell id="GIx_utv8iZvYDrLc7T0r-6" value="" style="endArrow=classic;startArrow=classic;html=1;rounded=0;entryX=0.45;entryY=1.067;entryDx=0;entryDy=0;entryPerimeter=0;" edge="1" parent="1">
          <mxGeometry width="50" height="50" relative="1" as="geometry">
            <mxPoint x="408.5" y="538.0874955683832" as="sourcePoint" />
            <mxPoint x="408.5" y="408" as="targetPoint" />
          </mxGeometry>
        </mxCell>
        <mxCell id="GIx_utv8iZvYDrLc7T0r-7" value="" style="shape=actor;whiteSpace=wrap;html=1;" vertex="1" parent="1">
          <mxGeometry x="389" y="80" width="40" height="40" as="geometry" />
        </mxCell>
        <mxCell id="GIx_utv8iZvYDrLc7T0r-8" value="User" style="text;html=1;align=center;verticalAlign=middle;resizable=0;points=[];autosize=1;strokeColor=none;fillColor=none;" vertex="1" parent="1">
          <mxGeometry x="384" y="120" width="50" height="30" as="geometry" />
        </mxCell>
        <mxCell id="GIx_utv8iZvYDrLc7T0r-9" value="" style="endArrow=classic;html=1;rounded=0;exitX=0.5;exitY=1;exitDx=0;exitDy=0;exitPerimeter=0;entryX=0.5;entryY=0;entryDx=0;entryDy=0;entryPerimeter=0;" edge="1" parent="1" source="GIx_utv8iZvYDrLc7T0r-8" target="GIx_utv8iZvYDrLc7T0r-1">
          <mxGeometry width="50" height="50" relative="1" as="geometry">
            <mxPoint x="380" y="360" as="sourcePoint" />
            <mxPoint x="430" y="310" as="targetPoint" />
          </mxGeometry>
        </mxCell>
        <mxCell id="GIx_utv8iZvYDrLc7T0r-10" value="" style="aspect=fixed;sketch=0;html=1;dashed=0;whitespace=wrap;verticalLabelPosition=bottom;verticalAlign=top;fillColor=#2875E2;strokeColor=#ffffff;points=[[0.005,0.63,0],[0.1,0.2,0],[0.9,0.2,0],[0.5,0,0],[0.995,0.63,0],[0.72,0.99,0],[0.5,1,0],[0.28,0.99,0]];shape=mxgraph.kubernetes.icon2;prIcon=user" vertex="1" parent="1">
          <mxGeometry x="560" y="80" width="50" height="48" as="geometry" />
        </mxCell>
        <mxCell id="GIx_utv8iZvYDrLc7T0r-13" value="DevOps" style="text;html=1;align=center;verticalAlign=middle;resizable=0;points=[];autosize=1;strokeColor=none;fillColor=none;" vertex="1" parent="1">
          <mxGeometry x="550" y="128" width="70" height="30" as="geometry" />
        </mxCell>
        <mxCell id="GIx_utv8iZvYDrLc7T0r-14" value="" style="endArrow=classic;html=1;rounded=0;exitX=0.486;exitY=0.933;exitDx=0;exitDy=0;exitPerimeter=0;entryX=0.75;entryY=0;entryDx=0;entryDy=0;entryPerimeter=0;strokeColor=#FF0000;" edge="1" parent="1" source="GIx_utv8iZvYDrLc7T0r-13" target="GIx_utv8iZvYDrLc7T0r-1">
          <mxGeometry width="50" height="50" relative="1" as="geometry">
            <mxPoint x="400" y="380" as="sourcePoint" />
            <mxPoint x="450" y="330" as="targetPoint" />
            <Array as="points">
              <mxPoint x="584" y="220" />
              <mxPoint x="430" y="220" />
            </Array>
          </mxGeometry>
        </mxCell>
        <mxCell id="GIx_utv8iZvYDrLc7T0r-15" value="SSH Tunnel" style="text;html=1;align=center;verticalAlign=middle;resizable=0;points=[];autosize=1;strokeColor=none;fillColor=none;rotation=0;fontColor=#FF0000;" vertex="1" parent="1">
          <mxGeometry x="470" y="220" width="90" height="30" as="geometry" />
        </mxCell>
        <mxCell id="GIx_utv8iZvYDrLc7T0r-18" value="" style="endArrow=classic;html=1;rounded=0;exitX=0.55;exitY=1.033;exitDx=0;exitDy=0;exitPerimeter=0;fontColor=#FF0000;strokeColor=#FF0000;" edge="1" parent="1" source="GIx_utv8iZvYDrLc7T0r-2" target="GIx_utv8iZvYDrLc7T0r-4">
          <mxGeometry width="50" height="50" relative="1" as="geometry">
            <mxPoint x="400" y="380" as="sourcePoint" />
            <mxPoint x="450" y="330" as="targetPoint" />
          </mxGeometry>
        </mxCell>
      </root>
    </mxGraphModel>
  </diagram>
</mxfile>
